<?xml version="1.0" encoding="UTF-8"?>
<svg version="1.1" xmlns="http://www.w3.org/2000/svg" width="3491" height="912">
<path d="M0 0 C1.3345271 0.00056958 1.3345271 0.00056958 2.69601434 0.00115067 C4.22995327 -0.00183591 4.22995327 -0.00183591 5.79488087 -0.00488281 C7.50058338 -0.00051355 7.50058338 -0.00051355 9.24074453 0.00394398 C11.03674743 0.00266234 11.03674743 0.00266234 12.86903322 0.00135481 C16.20745662 -0.00001339 19.54582211 0.00313415 22.88423854 0.00813287 C26.47866492 0.01243402 30.07308937 0.01099119 33.6675176 0.0102306 C39.90008688 0.00970515 46.13264573 0.01285413 52.36521238 0.01846844 C61.37656032 0.02658061 70.38790318 0.02919837 79.39925437 0.03045643 C94.0180464 0.0326474 108.63683285 0.03930869 123.25562185 0.04875904 C137.46004865 0.05793201 151.66447394 0.06501341 165.8689031 0.06926686 C166.74383008 0.06952958 167.61875706 0.0697923 168.52019698 0.07006299 C172.90925922 0.07136798 177.29832146 0.0726317 181.68738371 0.07387489 C218.12395205 0.08424889 254.56051406 0.10186842 290.99707693 0.1241985 C289.89812558 1.85418863 288.79876633 3.58391966 287.69924062 5.31354481 C287.08707976 6.27681722 286.4749189 7.24008963 285.8442077 8.23255211 C283.085247 12.55165006 280.27776493 16.83813904 277.46192068 21.12029225 C276.86134344 22.03392033 276.2607662 22.94754841 275.64198965 23.88886219 C274.37778418 25.81097227 273.11308417 27.73275717 271.84790701 29.65422779 C269.96069154 32.52201509 268.07748884 35.39240999 266.19434255 38.26287037 C260.2368046 47.32344601 254.21182197 56.31970936 247.95801443 65.178886 C241.27034273 74.65275488 234.8699721 84.30003042 228.52197927 94.00386769 C225.34827379 98.85377335 222.16313144 103.69615332 218.97754568 108.538261 C218.049466 109.94915753 218.049466 109.94915753 217.10263723 111.38855702 C211.3549156 120.11700113 205.49664858 128.76494614 199.59473318 137.3898235 C193.33271369 146.54366341 187.13618874 155.74187564 180.93457693 164.9366985 C179.99340017 166.33192234 179.99340017 166.33192234 179.03320974 167.75533253 C170.16344329 180.90738377 161.33772174 194.08788021 152.55228323 207.29637867 C143.59215801 220.76529632 134.55288515 234.17991024 125.49854177 247.58562428 C117.62752565 259.24066387 109.78419871 270.91294098 101.99707693 282.6241985 C93.59213317 295.26461475 85.11823382 307.85742634 76.62207693 320.4366985 C67.70552058 333.63849748 58.81950512 346.85930267 49.99707693 360.1241985 C41.25780473 373.26400321 32.45548177 386.36000063 23.62207693 399.4366985 C13.83023411 413.93233939 4.08793828 428.4593756 -5.59963328 443.0248943 C-14.71322809 456.72508314 -23.91167072 470.36642591 -33.13094431 483.99565846 C-43.27196534 498.99528324 -53.25463337 514.0946949 -63.19057566 529.23073536 C-70.23837981 539.96241557 -77.34085298 550.62471376 -84.75878245 561.10491139 C-91.84158478 571.18593799 -98.55274353 581.51463335 -105.31542307 591.8116985 C-115.1436862 606.77386235 -125.05122556 621.66804797 -135.14190012 636.45435292 C-141.10533889 645.19855443 -147.02131963 653.97495597 -152.94042307 662.7491985 C-153.55788401 663.66436238 -154.17534495 664.57952626 -154.81151682 665.52242237 C-164.50337634 679.89130304 -174.13490678 694.29952381 -183.73616892 708.72905689 C-193.29953535 723.09974086 -202.93214222 737.42245292 -212.59520823 751.72624928 C-221.25536474 764.54697099 -229.86872026 777.39738244 -238.43663889 790.27989918 C-248.29625312 805.10120422 -258.24561557 819.86142902 -268.20995432 834.61247975 C-269.38055868 836.34553143 -270.55113241 838.07860379 -271.72167307 839.8116985 C-272.28573359 840.64682972 -272.8497941 841.48196095 -273.43094736 842.34239918 C-276.27655368 846.55799044 -279.11289289 850.77924038 -281.92870432 855.0148235 C-285.57703262 860.50129237 -289.26331995 865.96176265 -292.95214182 871.4210735 C-293.57770975 872.34714405 -294.20327769 873.27321461 -294.84780222 874.22734791 C-297.45606083 878.08821481 -300.06456035 881.9489164 -302.67504221 885.80828053 C-304.60199894 888.65753112 -306.52720341 891.50795909 -308.45214182 894.3585735 C-309.03557856 895.22021107 -309.6190153 896.08184864 -310.22013193 896.96959645 C-310.77453455 897.79115223 -311.32893717 898.61270802 -311.90013987 899.45915943 C-312.38008906 900.16909046 -312.86003824 900.87902149 -313.35453135 901.61046559 C-315.00011445 903.96160113 -315.00011445 903.96160113 -315.84678751 906.08585864 C-317.0100063 908.5003128 -318.09525518 910.23071036 -320.00292307 912.1241985 C-323.87796335 913.32690223 -327.65936008 913.1699697 -331.68964487 913.08623463 C-332.88631429 913.09307003 -334.0829837 913.09990543 -335.31591582 913.10694796 C-338.63528839 913.11785045 -341.95088806 913.09285727 -345.26980418 913.05272347 C-348.84916241 913.01817516 -352.42840412 913.02986665 -356.00788218 913.03594166 C-362.20846334 913.04013659 -368.40837107 913.01503753 -374.60878283 912.97003895 C-383.57341555 912.9050218 -392.53772264 912.88418751 -401.50256559 912.87413502 C-416.04722157 912.85662592 -430.59151862 912.80338667 -445.13597971 912.72771412 C-459.26454217 912.65428186 -473.39300714 912.59765465 -487.5217219 912.56365162 C-488.39261099 912.56154983 -489.26350008 912.55944805 -490.16077975 912.55728257 C-494.52977477 912.54684227 -498.89877048 912.5367326 -503.26776665 912.52678734 C-539.51307223 912.44385339 -575.75796971 912.30294834 -612.00292307 912.1241985 C-610.47303409 908.1384715 -608.6530976 904.89615565 -606.23339182 901.366386 C-605.84975977 900.80354405 -605.46612772 900.2407021 -605.07087046 899.66080433 C-604.22891927 898.42661793 -603.38480473 897.19390525 -602.53881174 895.96248585 C-601.15178013 893.94293342 -599.77091268 891.91928993 -598.39159495 889.89446217 C-596.35512896 886.9051023 -594.31696273 883.91691252 -592.27782542 880.92937428 C-586.49405233 872.44907273 -580.74640003 863.94432303 -575.00292307 855.4366985 C-574.09511591 854.09253361 -574.09511591 854.09253361 -573.16896921 852.72121388 C-562.91940725 837.5369222 -552.81154298 822.26233971 -542.74926096 806.95348316 C-535.30166172 795.62392213 -527.81226983 784.33535816 -520.13573557 773.15935475 C-514.17149481 764.46988617 -508.27564783 755.73388363 -502.37792307 746.9991985 C-501.75963633 746.08360157 -501.14134959 745.16800465 -500.50432688 744.22466236 C-490.78166319 729.81714771 -481.17444077 715.33641869 -471.62792307 700.8116985 C-463.55479703 688.52901201 -455.45778712 676.27514469 -447.13573557 664.15935475 C-441.17149481 655.46988617 -435.27564783 646.73388363 -429.37792307 637.9991985 C-428.75963633 637.08360157 -428.14134959 636.16800465 -427.50432688 635.22466236 C-417.78166319 620.81714771 -408.17444077 606.33641869 -398.62792307 591.8116985 C-390.55479703 579.52901201 -382.45778712 567.27514469 -374.13573557 555.15935475 C-368.17149481 546.46988617 -362.27564783 537.73388363 -356.37792307 528.9991985 C-355.75963633 528.08360157 -355.14134959 527.16800465 -354.50432688 526.22466236 C-344.78166319 511.81714771 -335.17444077 497.33641869 -325.62792307 482.8116985 C-317.55479703 470.52901201 -309.45778712 458.27514469 -301.13573557 446.15935475 C-295.17149493 437.46988635 -289.27563255 428.73389374 -283.37792307 419.9991985 C-282.75897166 419.08260456 -282.14002024 418.16601063 -281.50231272 417.22164112 C-271.82243751 402.87731088 -262.25698757 388.46050408 -252.75292307 373.9991985 C-244.12589508 360.87282277 -235.44984084 347.79198434 -226.58104807 334.8273235 C-220.43730809 325.84541216 -214.34271964 316.83024272 -208.25292307 307.8116985 C-207.33081034 306.44627918 -207.33081034 306.44627918 -206.39006907 305.05327564 C-196.70525849 290.70304573 -187.13683116 276.27897766 -177.62792307 261.8116985 C-169.55477365 249.52902704 -161.45778749 237.27514522 -153.13573557 225.15935475 C-147.17149481 216.46988617 -141.27564783 207.73388363 -135.37792307 198.9991985 C-134.75963633 198.08360157 -134.14134959 197.16800465 -133.50432688 196.22466236 C-123.78166319 181.81714771 -114.17444077 167.33641869 -104.62792307 152.8116985 C-96.55479703 140.52901201 -88.45778712 128.27514469 -80.13573557 116.15935475 C-74.17149481 107.46988617 -68.27564783 98.73388363 -62.37792307 89.9991985 C-61.45049296 88.62580311 -61.45049296 88.62580311 -60.50432688 87.22466236 C-50.15387212 71.88685644 -39.94067352 56.46167335 -29.77910715 40.99825245 C-2.95580034 0.1832851 -2.95580034 0.1832851 0 0 Z " fill="#EE3439" transform="translate(612.0029230713844,-0.12419849634170532)"/>
<path d="M0 0 C3.28687732 1.37924673 4.82206446 2.74773236 6.7512207 5.7265625 C7.25820999 6.4989476 7.76519928 7.2713327 8.28755188 8.06712341 C8.82816757 8.91122269 9.36878326 9.75532196 9.92578125 10.625 C10.78848885 11.94631676 10.78848885 11.94631676 11.66862488 13.29432678 C12.90909246 15.19612657 14.14537478 17.10066138 15.37792969 19.00759888 C18.65627662 24.07855907 21.96564746 29.12925141 25.26953125 34.18359375 C25.93264313 35.20005478 26.595755 36.21651581 27.27896118 37.26377869 C32.93250695 45.92314011 38.6857671 54.51046551 44.5 63.0625 C45.41853497 64.41547443 46.33699133 65.76850224 47.25537109 67.12158203 C48.66609993 69.1995816 50.07707184 71.27741437 51.4887085 73.35479736 C57.8252468 82.68115764 64.13189616 92.02770847 70.4375 101.375 C71.05431641 102.28919708 71.67113281 103.20339417 72.30664062 104.14529419 C81.0652572 117.12945604 89.77847825 130.14290975 98.45248413 143.18371582 C106.66728855 155.5321368 114.94759834 167.83533308 123.25 180.125 C133.46639811 195.2480823 143.62284725 210.40948203 153.73260498 225.60403442 C163.34104472 240.04240224 173.01893165 254.432702 182.72705078 268.80419922 C190.96260514 280.99684235 199.16011309 293.21333653 207.30688477 305.4654541 C215.89316148 318.37522067 224.56328484 331.22768665 233.24145508 344.07580566 C242.19670579 357.33608151 251.10728559 370.6248453 259.96307373 383.95175171 C265.32052965 392.01389553 270.703016 400.05692852 276.15625 408.0546875 C276.65225708 408.78288696 277.14826416 409.51108643 277.65930176 410.26135254 C280.01856246 413.72382673 282.38283326 417.1826877 284.75585938 420.63574219 C285.58739733 421.85340791 286.41878648 423.07117528 287.25 424.2890625 C287.97703125 425.34818848 288.7040625 426.40731445 289.453125 427.49853516 C291 430 291 430 291 432 C253.87828683 432.41227882 216.75691933 432.72931197 179.63337876 432.91917593 C175.24760684 432.94168782 170.86183942 432.9649857 166.47607422 432.98876953 C165.16642061 432.99585191 165.16642061 432.99585191 163.83030936 433.00307737 C149.70512035 433.08133712 135.58125409 433.22321959 121.45684901 433.38875033 C106.95655454 433.55726502 92.45695124 433.65709589 77.9557178 433.69359291 C69.01152633 433.71825627 60.07107335 433.79603892 51.12803343 433.9424964 C44.98969941 434.03788204 38.85328846 434.0663531 32.7142677 434.04302479 C29.17410556 434.03152392 25.64045443 434.04871813 22.10146141 434.14569855 C1.47084105 434.68362974 1.47084105 434.68362974 -4.29073477 430.22882009 C-8.13870842 426.00423614 -10.70334998 421.31837667 -13.01528144 416.12349474 C-14.34222286 413.26201406 -16.06543084 410.75950564 -17.89746094 408.19970703 C-18.45133484 407.37890656 -19.00520874 406.55810608 -19.5758667 405.71243286 C-20.12317444 404.90240814 -20.67048218 404.09238342 -21.234375 403.2578125 C-21.84210754 402.35731171 -22.44984009 401.45681091 -23.07598877 400.52902222 C-24.96684683 397.72735775 -26.85835659 394.92613425 -28.75 392.125 C-42.74998303 371.3908931 -42.74998303 371.3908931 -46.984375 365.0234375 C-53.10728368 355.81619121 -59.31327881 346.66442038 -65.5 337.5 C-79.7294143 316.42189896 -79.7294143 316.42189896 -85.82226562 307.25976562 C-91.35004686 298.98544555 -96.93228839 290.74747845 -102.5 282.5 C-105.05247135 278.7190117 -107.60458339 274.93778144 -110.15625 271.15625 C-110.76816193 270.24968155 -111.38007385 269.3431131 -112.01052856 268.40907288 C-115.09565803 263.83534718 -118.16575212 259.25274048 -121.2109375 254.65234375 C-123.75752898 250.81740413 -126.36533853 247.03191571 -129.01141357 243.26541138 C-130.9117952 240.55809761 -132.79913916 237.84181869 -134.68554688 235.12475586 C-135.65693896 233.73307523 -136.6346436 232.34578244 -137.61816406 230.96264648 C-139.05701739 228.93579566 -140.47176676 226.89392679 -141.8828125 224.84765625 C-142.327388 224.23302017 -142.7719635 223.61838409 -143.23001099 222.98512268 C-144.42626953 221.22290039 -144.42626953 221.22290039 -146 218 C-144.93711149 213.2441184 -141.71046596 209.44817534 -138.9375 205.5 C-137.7525638 203.78999196 -136.56910536 202.07895944 -135.38671875 200.3671875 C-134.70399902 199.37944336 -134.0212793 198.39169922 -133.31787109 197.37402344 C-128.57861225 190.49185142 -123.92379752 183.55168589 -119.25 176.625 C-118.16192755 175.01338566 -117.07379206 173.40181388 -115.9855957 171.7902832 C-113.76001977 168.49429862 -111.53470798 165.19813594 -109.30957031 161.90185547 C-106.1322228 157.19536731 -102.95315595 152.49004284 -99.7734375 147.78515625 C-99.26623169 147.03466003 -98.75902588 146.28416382 -98.2364502 145.51092529 C-97.21252672 143.9958684 -96.18860094 142.48081306 -95.16467285 140.96575928 C-85.93843553 127.3136638 -76.71779876 113.65779423 -67.5 100 C-58.79495613 87.10194256 -50.08726734 74.20567943 -41.375 61.3125 C-40.86989899 60.56499481 -40.36479797 59.81748962 -39.84439087 59.04733276 C-34.49107528 51.12498283 -29.13723662 43.2029865 -23.78308105 35.28120422 C-21.47395874 31.86465181 -19.16497813 28.44800363 -16.85601807 25.03134155 C-15.22690991 22.62081331 -13.59758919 20.21042884 -11.96826172 17.80004883 C-10.9723195 16.32634223 -9.97638794 14.85262842 -8.98046875 13.37890625 C-8.53371292 12.71812073 -8.08695709 12.05733521 -7.62666321 11.37652588 C-5.07053502 7.59349166 -2.52860126 3.80149263 0 0 Z " fill="#009CE4" transform="translate(621,480)"/>
<path d="M0 0 C36.89881408 -0.84918478 73.79614339 -1.49998319 110.70277196 -1.88941719 C115.07180205 -1.9356865 119.44081297 -1.98357708 123.80981445 -2.0324707 C124.67950682 -2.04217619 125.54919919 -2.05188167 126.44524587 -2.06188127 C140.47989642 -2.22235955 154.50886927 -2.51375343 168.54016464 -2.85465346 C182.96679776 -3.20220216 197.39048532 -3.40648189 211.82113177 -3.48127431 C219.91757767 -3.52725765 228.00214725 -3.63752125 236.09434319 -3.9120121 C286.71406059 -5.57998538 286.71406059 -5.57998538 298.12153244 3.6233387 C306.54298975 11.76085788 311.66624562 21.96637963 316.10029793 32.66162109 C318.5480671 38.49777771 322.01412894 43.38938708 325.765625 48.47265625 C326.86162412 50.07805668 327.95183217 51.68744447 329.03320312 53.30273438 C329.55664307 54.07705811 330.08008301 54.85138184 330.61938477 55.64916992 C341.62304016 71.9347117 352.50147308 88.2975059 363.29025269 104.72610474 C375.55035014 123.39032773 388.02006892 141.90960756 400.54069519 160.39976501 C404.1220619 165.69148422 407.67051194 171.00372834 411.20532227 176.32666016 C413.06817071 179.10154662 414.96869443 181.84738197 416.87890625 184.58984375 C417.48927734 185.47607422 418.09964844 186.36230469 418.72851562 187.27539062 C419.9752851 189.08513163 421.23356142 190.88698771 422.50195312 192.68164062 C423.40010742 193.99745117 423.40010742 193.99745117 424.31640625 195.33984375 C424.85724854 196.11706787 425.39809082 196.89429199 425.95532227 197.69506836 C427.28200602 200.62220585 426.99432264 201.98229327 426 205 C424.40434091 207.58690185 422.76283164 210.03082451 421 212.5 C419.80560749 214.20976222 418.6130683 215.92081985 417.421875 217.6328125 C416.73287109 218.62055664 416.04386719 219.60830078 415.33398438 220.62597656 C411.11044251 226.71059347 406.98815758 232.86489067 402.84747314 239.00601196 C400.67662836 242.22528694 398.50355346 245.44305413 396.33059692 248.66090393 C394.6566883 251.13982685 392.98310846 253.61897149 391.30957031 256.09814453 C388.1322228 260.80463269 384.95315595 265.50995716 381.7734375 270.21484375 C381.26623169 270.96533997 380.75902588 271.71583618 380.2364502 272.48907471 C379.21252672 274.0041316 378.18860094 275.51918694 377.16467285 277.03424072 C367.93843553 290.6863362 358.71779876 304.34220577 349.5 318 C340.79495613 330.89805744 332.08726734 343.79432057 323.375 356.6875 C322.61734848 357.80875778 322.61734848 357.80875778 321.84439087 358.95266724 C316.49107528 366.87501717 311.13723662 374.7970135 305.78308105 382.71879578 C303.47395874 386.13534819 301.16497813 389.55199637 298.85601807 392.96865845 C297.22690991 395.37918669 295.59758919 397.78957116 293.96826172 400.19995117 C292.9723195 401.67365777 291.97638794 403.14737158 290.98046875 404.62109375 C290.53371292 405.28187927 290.08695709 405.94266479 289.62666321 406.62347412 C287.07053502 410.40650834 284.52860126 414.19850737 282 418 C278.57636635 416.58760694 277.06277568 415.07608407 275.05834961 411.98779297 C274.51355453 411.15867401 273.96875946 410.32955505 273.40745544 409.47531128 C272.82826859 408.57338043 272.24908173 407.67144958 271.65234375 406.7421875 C270.7344381 405.33841354 270.7344381 405.33841354 269.79798889 403.90628052 C267.83560697 400.90153567 265.88614551 397.88866736 263.9375 394.875 C261.38739405 390.95358943 258.83249419 387.03531243 256.27734375 383.1171875 C255.64951492 382.15282272 255.0216861 381.18845795 254.37483215 380.19487 C249.93716444 373.3922027 245.39143673 366.67568737 240.7644043 360.00097656 C235.24394097 352.03347238 229.85502187 343.97514297 224.4375 335.9375 C223.49716919 334.54313721 223.49716919 334.54313721 222.5378418 333.12060547 C213.11731001 319.14940743 203.74733597 305.14537602 194.41390991 291.11587524 C185.12870326 277.16093635 175.76930929 263.25712552 166.38720703 249.3671875 C158.11460208 237.11858496 149.87957987 224.84641168 141.69567871 212.53839111 C133.68254371 200.49031295 125.59823302 188.49100893 117.5 176.5 C108.52308988 163.20793873 99.57772372 149.89639678 90.69677734 136.54003906 C82.68327547 124.49141194 74.59860256 112.49155611 66.5 100.5 C57.52999102 87.21815721 48.58697514 73.91974211 39.71792603 60.57025146 C33.92780428 51.85612442 28.09600654 43.17138714 22.23046875 34.5078125 C21.56395294 33.52266663 20.89743713 32.53752075 20.21072388 31.52252197 C16.90462797 26.63637179 13.59493057 21.75272997 10.27929688 16.87304688 C9.07537437 15.09515125 7.87159144 13.31716111 6.66796875 11.5390625 C6.10869186 10.71882599 5.54941498 9.89858948 4.97319031 9.05349731 C4.46278702 8.29801605 3.95238373 7.54253479 3.42651367 6.76416016 C2.97990891 6.10646637 2.53330414 5.44877258 2.07316589 4.77114868 C1 3 1 3 0 0 Z " fill="#ADD348" transform="translate(8,0)"/>
<path d="M0 0 C1 2 1 2 0.38745117 4.14233398 C0.04689697 5.02219971 -0.29365723 5.90206543 -0.64453125 6.80859375 C-1.20841553 8.29528564 -1.20841553 8.29528564 -1.78369141 9.81201172 C-2.38576416 11.39006592 -2.38576416 11.39006592 -3 13 C-3.75914467 15.09315963 -4.51294393 17.18826471 -5.26171875 19.28515625 C-5.8494104 20.925448 -5.8494104 20.925448 -6.44897461 22.59887695 C-10.54413432 34.05127806 -14.58095764 45.52114445 -18.54272461 57.02050781 C-21.6230052 65.94657152 -24.77164216 74.84760787 -27.93719482 83.74371338 C-31.8408643 94.71502852 -35.70865249 105.69859139 -39.5625 116.6875 C-44.98447003 132.14566893 -50.46686109 147.58123932 -56 163 C-55.67 163.33 -55.34 163.66 -55 164 C-54.52393311 163.64921387 -54.04786621 163.29842773 -53.55737305 162.93701172 C-39.7882487 152.79134115 -26.01912435 142.64567057 -12.25 132.5 C-11.46616943 131.92241943 -10.68233887 131.34483887 -9.87475586 130.74975586 C-8.29231815 129.58379194 -6.70979869 128.41793896 -5.12719727 127.25219727 C-1.15448113 124.32568557 2.81676994 121.39722466 6.78515625 118.46484375 C15.23340257 112.22528928 23.71006584 106.0293578 32.23291016 99.89208984 C40.06877486 94.24281917 47.83992854 88.50687108 55.60888672 82.76611328 C59.56991162 79.84043897 63.53515717 76.92049694 67.5 74 C69.08335379 72.8333611 70.66668712 71.66669442 72.25 70.5 C75.41666667 68.16666667 78.58333333 65.83333333 81.75 63.5 C82.53455566 62.92185547 83.31911133 62.34371094 84.12744141 61.74804688 C85.70244018 60.58762382 87.27763386 59.42746526 88.85302734 58.26757812 C92.94056089 55.25758241 97.0240685 52.24233519 101.1015625 49.21875 C101.94267578 48.59613281 102.78378906 47.97351563 103.65039062 47.33203125 C105.24151509 46.1540717 106.8314589 44.97451483 108.41992188 43.79296875 C113.5084652 40.029333 118.70390007 36.4651759 124 33 C122.75165442 36.35360868 121.34276037 39.22416544 119.33300781 42.18164062 C118.79774475 42.97437378 118.26248169 43.76710693 117.71099854 44.5838623 C116.84085114 45.85719421 116.84085114 45.85719421 115.953125 47.15625 C115.04164703 48.50257507 115.04164703 48.50257507 114.11175537 49.87609863 C112.16226573 52.75376559 110.20637554 55.62701109 108.25 58.5 C106.3469481 61.30334744 104.4452514 64.10761024 102.54376221 66.91201782 C101.2675402 68.79418027 99.99080076 70.67599196 98.71356201 72.5574646 C93.82610679 79.76253755 88.98826058 86.9995802 84.16625977 94.24856567 C78.49632623 102.7681544 72.77012619 111.2492463 67.0390625 119.7277832 C56.97553446 134.61845385 46.95439542 149.53616094 37 164.5 C27.9265942 178.13931158 18.79573426 191.73844489 9.625 205.3125 C-0.55076222 220.37425404 -10.66614128 235.47458762 -20.73516846 250.60787964 C-30.29791049 264.97754444 -39.92988781 279.29924422 -49.59228516 293.60205078 C-58.25244167 306.4227725 -66.86579718 319.27318394 -75.43371582 332.15570068 C-85.29333005 346.97700572 -95.2426925 361.73723053 -105.20703125 376.48828125 C-106.37763561 378.22133293 -107.54820934 379.9544053 -108.71875 381.6875 C-109.28281052 382.52263123 -109.84687103 383.35776245 -110.42802429 384.21820068 C-113.27363061 388.43379195 -116.10996981 392.65504189 -118.92578125 396.890625 C-122.57410955 402.37709388 -126.26039688 407.83756415 -129.94921875 413.296875 C-130.57478668 414.22294556 -131.20035461 415.14901611 -131.84487915 416.10314941 C-134.45313775 419.96401632 -137.06163728 423.8247179 -139.67211914 427.68408203 C-141.59907587 430.53333263 -143.52428034 433.38376059 -145.44921875 436.234375 C-146.03265549 437.09601257 -146.61609222 437.95765015 -147.21720886 438.84539795 C-147.77161148 439.66695374 -148.3260141 440.48850952 -148.8972168 441.33496094 C-149.37716599 442.04489197 -149.85711517 442.754823 -150.35160828 443.48626709 C-151.99719138 445.83740264 -151.99719138 445.83740264 -152.84386444 447.96166015 C-154.00708323 450.3761143 -155.09233211 452.10651186 -157 454 C-160.87504027 455.20270373 -164.65643701 455.0457712 -168.6867218 454.96203613 C-169.88339122 454.96887153 -171.08006063 454.97570693 -172.31299275 454.98274946 C-175.63236532 454.99365195 -178.94796499 454.96865878 -182.26688111 454.92852497 C-185.84623934 454.89397666 -189.42548105 454.90566816 -193.00495911 454.91174316 C-199.20554027 454.91593809 -205.405448 454.89083903 -211.60585976 454.84584045 C-220.57049248 454.7808233 -229.53479957 454.75998901 -238.49964251 454.74993652 C-253.0442985 454.73242742 -267.58859555 454.67918818 -282.13305664 454.60351562 C-296.2616191 454.53008337 -310.39008407 454.47345616 -324.51879883 454.43945312 C-325.38968792 454.43735134 -326.26057701 454.43524955 -327.15785668 454.43308407 C-331.5268517 454.42264377 -335.89584741 454.41253411 -340.26484358 454.40258884 C-376.51014916 454.31965489 -412.75504663 454.17874984 -449 454 C-442.76869535 446.64162902 -442.76869535 446.64162902 -439.44032288 443.32679749 C-438.8027153 442.68926041 -438.16510773 442.05172333 -437.50817871 441.39486694 C-436.49104797 440.38548569 -436.49104797 440.38548569 -435.45336914 439.35571289 C-434.35701393 438.26154808 -434.35701393 438.26154808 -433.23851013 437.14527893 C-431.66168534 435.57223986 -430.08370701 434.0003564 -428.50468636 432.42952156 C-426.00051554 429.9381932 -423.49955083 427.44368552 -420.99937439 424.948349 C-414.79035918 418.75265652 -408.57591559 412.56241803 -402.3616333 406.37200928 C-397.10423878 401.13439867 -391.84893185 395.89471003 -386.59634209 390.65228081 C-384.14180713 388.20419119 -381.68426104 385.75915258 -379.22657776 383.31422424 C-377.70957771 381.80085965 -376.19271952 380.28735283 -374.67602539 378.77368164 C-373.99996246 378.10278503 -373.32389954 377.43188843 -372.62734985 376.74066162 C-369.49124512 373.60490209 -366.46335654 370.42794351 -363.56785583 367.06785583 C-359.6633048 362.54809193 -355.47394892 358.34847673 -351.23828125 354.140625 C-350.3901889 353.29399292 -349.54209656 352.44736084 -348.66830444 351.57507324 C-346.36427422 349.27581079 -344.05806731 346.97875834 -341.75100327 344.68254089 C-339.32317123 342.26477184 -336.89864529 339.84369251 -334.47387695 337.42285156 C-327.79678489 330.75774372 -321.1146634 324.09768572 -314.43247986 317.43768311 C-308.30251094 311.32795733 -302.17364132 305.21713915 -296.04882717 299.10224533 C-293.64189825 296.6994569 -291.23391437 294.29774618 -288.82339478 291.89855957 C-286.13390597 289.2210904 -283.44751535 286.54054713 -280.76171875 283.859375 C-279.58166763 282.68707336 -279.58166763 282.68707336 -278.3777771 281.49108887 C-274.969307 278.0829435 -271.64732945 274.65184002 -268.5 271 C-264.62154592 266.49983753 -260.45128803 262.32596466 -256.23828125 258.140625 C-255.3901889 257.29399292 -254.54209656 256.44736084 -253.66830444 255.57507324 C-251.36427422 253.27581079 -249.05806731 250.97875834 -246.75100327 248.68254089 C-244.32317123 246.26477184 -241.89864529 243.84369251 -239.47387695 241.42285156 C-232.79678489 234.75774372 -226.1146634 228.09768572 -219.43247986 221.43768311 C-213.30251094 215.32795733 -207.17364132 209.21713915 -201.04882717 203.10224533 C-198.64189825 200.6994569 -196.23391437 198.29774618 -193.82339478 195.89855957 C-191.13390597 193.2210904 -188.44751535 190.54054713 -185.76171875 187.859375 C-184.97501801 187.07784058 -184.18831726 186.29630615 -183.3777771 185.49108887 C-179.969307 182.0829435 -176.64732945 178.65184002 -173.5 175 C-169.62154592 170.49983753 -165.45128803 166.32596466 -161.23828125 162.140625 C-160.3901889 161.29399292 -159.54209656 160.44736084 -158.66830444 159.57507324 C-156.36427422 157.27581079 -154.05806731 154.97875834 -151.75100327 152.68254089 C-149.32317123 150.26477184 -146.89864529 147.84369251 -144.47387695 145.42285156 C-137.79678489 138.75774372 -131.1146634 132.09768572 -124.43247986 125.43768311 C-118.30251094 119.32795733 -112.17364132 113.21713915 -106.04882717 107.10224533 C-103.64189825 104.6994569 -101.23391437 102.29774618 -98.82339478 99.89855957 C-96.13390597 97.2210904 -93.44751535 94.54054713 -90.76171875 91.859375 C-89.97501801 91.07784058 -89.18831726 90.29630615 -88.3777771 89.49108887 C-84.32410177 85.43779973 -80.46525613 81.29245602 -76.72376823 76.95059204 C-73.73049525 73.56344616 -70.52427717 70.39371642 -67.32055664 67.20703125 C-66.58801666 66.47434525 -65.85547668 65.74165924 -65.10073853 64.98677063 C-62.70624337 62.59296582 -60.30823802 60.20271131 -57.91015625 57.8125 C-56.23842345 56.14263451 -54.56691295 54.47254643 -52.89561462 52.80224609 C-48.51668864 48.42712068 -44.13476684 44.05500793 -39.75219727 39.68353271 C-35.27242491 35.2140276 -30.79551593 30.74165637 -26.31835938 26.26953125 C-17.54836032 17.51022607 -8.77519113 8.75410347 0 0 Z " fill="#F16C3B" transform="translate(449,458)"/>
<path d="M0 0 C0.72268066 0.35320312 1.44536133 0.70640625 2.18994141 1.0703125 C25.93110555 12.76474197 47.84872644 29.97724717 64 51 C64.81082031 52.00675781 65.62164063 53.01351562 66.45703125 54.05078125 C86.30181549 78.83668348 98.67946109 108.81206918 104 140 C104.33837891 141.918125 104.33837891 141.918125 104.68359375 143.875 C111.85282854 192.92245456 99.87776106 245.19780202 70.7265625 285.37890625 C54.4264587 307.24137715 34.68298335 325.43429594 11 339 C9.87722656 339.65484375 8.75445313 340.3096875 7.59765625 340.984375 C-35.11302016 365.23684632 -88.57769317 370.37277955 -135.76879883 358.11181641 C-166.88133896 349.51587766 -194.59943625 334.25743277 -218 312 C-218.83917969 311.20964355 -218.83917969 311.20964355 -219.6953125 310.40332031 C-253.51296603 278.36649003 -275.49001907 232.34728126 -277.12255859 185.48168945 C-278.20777155 132.90147754 -264.96036481 82.12601119 -228 43 C-226.89140313 41.6912398 -225.78709026 40.37883641 -224.6875 39.0625 C-195.37798149 5.66172146 -149.23719168 -14.49759461 -105.60986328 -18.83007812 C-68.9391826 -21.2176173 -33.17207975 -16.47544085 0 0 Z M-152 95 C-152.82628906 95.63550781 -153.65257812 96.27101563 -154.50390625 96.92578125 C-172.67429949 112.02512212 -182.04215693 137.33235352 -184.6875 160.1484375 C-186.96566899 188.22687031 -180.88037017 216.50131764 -162.83984375 238.65234375 C-144.68755382 259.42983258 -120.88530911 271.98729173 -93.26171875 273.91015625 C-92.51535156 273.93980469 -91.76898437 273.96945312 -91 274 C-90.18144531 274.03996094 -89.36289063 274.07992187 -88.51953125 274.12109375 C-60.28486033 274.83008844 -34.24342491 264.6452559 -13.8125 245.25 C3.82429816 226.96208409 12.519161 203.06848879 14 178 C14.08121094 176.70255859 14.08121094 176.70255859 14.1640625 175.37890625 C15.04815866 147.0476428 5.13097408 120.0613915 -14.19824219 99.35058594 C-31.84680651 81.12338016 -57.36586491 71.18740279 -82.59472656 70.75854492 C-108.32610441 70.6646935 -132.35504863 77.99818754 -152 95 Z " fill="#187460" transform="translate(1408,94)"/>
<path d="M0 0 C211.45631068 0 211.45631068 0 258 36 C258.91652344 36.69351563 259.83304688 37.38703125 260.77734375 38.1015625 C278.06436314 51.65702264 291.78931178 68.19704472 303 87 C303.3697998 87.61762207 303.73959961 88.23524414 304.12060547 88.87158203 C315.34633753 107.95776161 322.0447623 129.29881221 326 151 C326.12987305 151.68271973 326.25974609 152.36543945 326.39355469 153.06884766 C333.45730954 191.95907222 326.44424507 234.87730471 309 270 C308.64679687 270.72268066 308.29359375 271.44536133 307.9296875 272.18994141 C292.9116992 302.67834841 269.229967 327.72949359 240 345 C239.05181396 345.56050049 239.05181396 345.56050049 238.08447266 346.13232422 C222.98744369 354.90183944 206.79418202 360.89427925 189.8125 364.875 C189.0078833 365.06610352 188.2032666 365.25720703 187.37426758 365.45410156 C126.32573097 378.70121928 62.46927204 369 0 369 C0 247.23 0 125.46 0 0 Z M93 89 C93 151.7 93 214.4 93 279 C159.18249695 282.94220549 159.18249695 282.94220549 213.14453125 254.9453125 C232.36458608 235.56450111 239.26009926 209.24953001 239.1809082 182.66186523 C238.83519579 158.8960861 232.40117689 134.82604808 216 117 C214.87658203 115.73929688 214.87658203 115.73929688 213.73046875 114.453125 C207.57926124 107.89448694 200.87662039 103.28848881 193 99 C191.67548828 98.27490234 191.67548828 98.27490234 190.32421875 97.53515625 C161.58726682 83.18848374 120.86887155 89 93 89 Z " fill="#187460" transform="translate(1880,82)"/>
<path d="M0 0 C30.36 0 60.72 0 92 0 C92.01458252 7.48010742 92.02916504 14.96021484 92.04418945 22.66699219 C92.09299576 46.62823611 92.15641838 70.58941862 92.22898628 94.55060135 C92.24025381 98.27543312 92.25139236 102.00026526 92.26245117 105.72509766 C92.26465486 106.46661301 92.26685854 107.20812836 92.269129 107.97211388 C92.30445599 119.96263606 92.32934604 131.95315818 92.35034702 143.94371304 C92.37214578 156.2564276 92.40523473 168.56907491 92.44870156 180.88173223 C92.47514825 188.47309053 92.49289496 196.06436511 92.49934604 203.65576717 C92.50524696 209.48682881 92.52689193 215.31775198 92.55427551 221.1487484 C92.56304316 223.5335044 92.56678097 225.91828525 92.56500816 228.30305672 C92.27291959 251.78944736 92.27291959 251.78944736 102.8671875 272.15625 C113.63424931 282.72611287 128.45325208 284.83989268 143 285.25 C156.45634745 284.87063365 172.96400159 283.03599841 183 273 C194.59067312 259.60883396 193.58480432 243.10687387 193.54589844 226.4831543 C193.55464314 224.00835524 193.56513204 221.53356182 193.57722473 219.05877686 C193.59925909 213.75290871 193.60929038 208.44723104 193.60811615 203.14133263 C193.60643967 195.47016277 193.62685489 187.79917336 193.65247145 180.12805185 C193.69345222 167.67888256 193.7168398 155.22974595 193.72900391 142.78051758 C193.74085047 130.69519921 193.76108196 118.60994227 193.79248047 106.5246582 C193.79441657 105.77833772 193.79635267 105.03201723 193.79834744 104.26308098 C193.80811273 100.51859697 193.81804171 96.77411342 193.82805204 93.02963006 C193.91074104 62.01976335 193.9615405 31.00996095 194 0 C224.69 0 255.38 0 287 0 C287.04418442 31.89027211 287.0810766 63.78051423 287.10213066 95.67080779 C287.10463173 99.44541489 287.10722041 103.22002191 287.10986328 106.99462891 C287.11065021 108.1216979 287.11065021 108.1216979 287.11145304 109.27153596 C287.12012887 121.39893825 287.13588311 133.52632135 287.15430559 145.6537123 C287.17308351 158.12010449 287.18413331 170.5864867 287.18817699 183.05289245 C287.19090577 190.73022435 287.19948837 198.40750201 287.21583293 206.0848172 C287.22776773 211.99597676 287.22889162 217.90710929 287.22621536 223.81828117 C287.22676086 226.22549458 287.23067517 228.63271024 287.23841095 231.03991127 C287.35322894 268.64668778 282.24317434 305.14997435 254.83203125 333.140625 C254.34299316 333.63240234 253.85395508 334.12417969 253.35009766 334.63085938 C252.19041736 335.80689682 251.06604458 337.01756666 249.94921875 338.234375 C226.26759439 363.5894332 187.53603586 374.8215162 153.86230469 376.12109375 C110.85393205 377.35590204 68.38821686 368.24682994 36.16015625 338.0625 C35.44730469 337.381875 34.73445313 336.70125 34 336 C33.40058594 335.46375 32.80117187 334.9275 32.18359375 334.375 C19.46607935 322.57220241 11.28120117 306.24958214 5.6875 290.0625 C5.34187012 289.08168457 5.34187012 289.08168457 4.98925781 288.08105469 C-0.38237992 271.55597239 -0.41947215 255.01617039 -0.34057617 237.83569336 C-0.33972845 235.23223378 -0.34020787 232.62877349 -0.34190369 230.02531433 C-0.34346529 224.45378688 -0.3341739 218.88236604 -0.31719017 213.3108654 C-0.29265177 205.25575182 -0.28497986 197.200689 -0.2812262 189.14554209 C-0.27468478 176.07185247 -0.25478684 162.99821948 -0.22631836 149.92456055 C-0.19871763 137.23608684 -0.17751362 124.54762859 -0.16479492 111.85913086 C-0.16361267 110.68298006 -0.16361267 110.68298006 -0.16240653 109.48306864 C-0.15849099 105.54887471 -0.15469996 101.61468067 -0.15097082 97.68048656 C-0.11994695 65.12027416 -0.06468314 32.56016726 0 0 Z " fill="#187460" transform="translate(1545,82)"/>
<path d="M0 0 C96.69 0 193.38 0 293 0 C289.56202132 3.43797868 286.12190047 6.873653 282.67822266 10.3059082 C277.52363314 15.44414826 272.37159525 20.58493883 267.22100258 25.72718525 C264.11448141 28.82848997 261.00703149 31.92885217 257.89746094 35.02709961 C254.87444525 38.03918367 251.8539389 41.05376386 248.83509445 44.07002831 C247.69184367 45.21144635 246.54772041 46.35199127 245.402668 47.49160194 C243.79291724 49.09400269 242.18641581 50.69959894 240.58056641 52.3059082 C239.2141954 53.66894829 239.2141954 53.66894829 237.82022095 55.05952454 C235.69074708 57.23292026 233.69018413 59.49113797 231.70455933 61.7964325 C227.71965126 66.38818932 223.45795427 70.66768314 219.14648438 74.95117188 C218.28863846 75.80755753 217.43079254 76.66394318 216.54695129 77.54627991 C214.21606221 79.87240062 211.88299632 82.19631161 209.54907417 84.5193882 C207.09321564 86.96518524 204.64066187 89.41429117 202.18786621 91.86315918 C195.43336841 98.60567174 188.6738416 105.34313512 181.91425323 112.08054352 C175.71337141 118.26118336 169.51358811 124.44291491 163.31786013 130.62872171 C160.88298537 133.05945553 158.44705516 135.48911141 156.0085907 137.91624451 C153.28796975 140.62484752 150.57044536 143.33652328 147.85351562 146.04882812 C147.05746414 146.83971329 146.26141266 147.63059845 145.4412384 148.44544983 C141.38637766 152.49992861 137.52874096 156.64465694 133.78649139 160.98766327 C130.43083393 164.7675375 126.82288537 168.29831124 123.23828125 171.859375 C122.3901889 172.70600708 121.54209656 173.55263916 120.66830444 174.42492676 C118.36427422 176.72418921 116.05806731 179.02124166 113.75100327 181.31745911 C111.32317123 183.73522816 108.89864529 186.15630749 106.47387695 188.57714844 C99.79678489 195.24225628 93.1146634 201.90231428 86.43247986 208.56231689 C80.30251094 214.67204267 74.17364132 220.78286085 68.04882717 226.89775467 C65.64189825 229.3005431 63.23391437 231.70225382 60.82339478 234.10144043 C58.13390597 236.7789096 55.44751535 239.45945287 52.76171875 242.140625 C51.58166763 243.31292664 51.58166763 243.31292664 50.3777771 244.50891113 C46.969307 247.9170565 43.64732945 251.34815998 40.5 255 C36.62154592 259.50016247 32.45128803 263.67403534 28.23828125 267.859375 C27.3901889 268.70600708 26.54209656 269.55263916 25.66830444 270.42492676 C23.36427422 272.72418921 21.05806731 275.02124166 18.75100327 277.31745911 C16.32317123 279.73522816 13.89864529 282.15630749 11.47387695 284.57714844 C4.79678489 291.24225628 -1.8853366 297.90231428 -8.56752014 304.56231689 C-14.69748906 310.67204267 -20.82635868 316.78286085 -26.95117283 322.89775467 C-29.35810175 325.3005431 -31.76608563 327.70225382 -34.17660522 330.10144043 C-36.86609403 332.7789096 -39.55248465 335.45945287 -42.23828125 338.140625 C-43.02498199 338.92215942 -43.81168274 339.70369385 -44.6222229 340.50891113 C-48.030693 343.9170565 -51.35267055 347.34815998 -54.5 351 C-58.37845408 355.50016247 -62.54871197 359.67403534 -66.76171875 363.859375 C-67.6098111 364.70600708 -68.45790344 365.55263916 -69.33169556 366.42492676 C-71.63572578 368.72418921 -73.94193269 371.02124166 -76.24899673 373.31745911 C-78.67682877 375.73522816 -81.10135471 378.15630749 -83.52612305 380.57714844 C-90.20321511 387.24225628 -96.8853366 393.90231428 -103.56752014 400.56231689 C-109.69748906 406.67204267 -115.82635868 412.78286085 -121.95117283 418.89775467 C-124.35810175 421.3005431 -126.76608563 423.70225382 -129.17660522 426.10144043 C-131.86609403 428.7789096 -134.55248465 431.45945287 -137.23828125 434.140625 C-138.02498199 434.92215942 -138.81168274 435.70369385 -139.6222229 436.50891113 C-143.73977056 440.62606651 -147.68096066 444.82111282 -151.44108582 449.26849365 C-153.742187 451.8243568 -156.29215436 453.8865595 -159 456 C-158.2444333 451.35841638 -156.72518702 447.08956365 -155.15625 442.67578125 C-154.87139236 441.86569611 -154.58653473 441.05561096 -154.29304504 440.22097778 C-153.36504396 437.58374582 -152.43250076 434.94814388 -151.5 432.3125 C-150.53252088 429.5663833 -149.56620597 426.81985867 -148.59992981 424.07331848 C-147.95838482 422.25009081 -147.31644826 420.42700087 -146.67411804 418.60404968 C-144.19212459 411.55807186 -141.74384904 404.50112516 -139.3125 397.4375 C-135.94892665 387.68686424 -132.51528775 377.96187341 -129.0586853 368.243927 C-123.83472908 353.55702823 -118.66804681 338.85024238 -113.50689697 324.14117432 C-111.54123009 318.53975183 -109.57215126 312.93953641 -107.6015625 307.33984375 C-102.82999557 293.77826689 -98.06150022 280.21627437 -93.375 266.625 C-90.21463875 257.46196719 -86.99804868 248.31975539 -83.75 239.1875 C-79.60336337 227.52840001 -75.47738705 215.86225085 -71.375 204.1875 C-71.09791199 203.39900665 -70.82082397 202.61051331 -70.53533936 201.79812622 C-67.12244924 192.0826825 -63.73221278 182.35985031 -60.375 172.625 C-56.99046931 162.81217389 -53.53763708 153.02449773 -50.05895996 143.24475098 C-44.83492039 128.55757471 -39.66814262 113.85051543 -34.50689697 99.14117432 C-32.54123009 93.53975184 -30.57216059 87.93953312 -28.6015625 82.33984375 C-18.95729929 54.93058457 -9.47234821 27.46980981 0 0 Z " fill="#D52D32" transform="translate(610,0)"/>
<path d="M0 0 C30.36 0 60.72 0 92 0 C92 92.07 92 184.14 92 279 C134.24 279 176.48 279 220 279 C220 308.7 220 338.4 220 369 C147.4 369 74.8 369 0 369 C0 247.23 0 125.46 0 0 Z " fill="#187460" transform="translate(921,82)"/>
<path d="M0 0 C1 2 1 2 0.30664062 4.57177734 C-0.07298828 5.6489502 -0.45261719 6.72612305 -0.84375 7.8359375 C-1.47108032 9.63393799 -1.47108032 9.63393799 -2.11108398 11.46826172 C-2.57390226 12.77056245 -3.03687798 14.07280725 -3.5 15.375 C-3.96951534 16.71216238 -4.43834232 18.04956666 -4.90649414 19.38720703 C-5.84009474 22.05122618 -6.77771503 24.71377071 -7.71923828 27.375 C-8.7672194 30.34115014 -9.8076825 33.309572 -10.83984375 36.28125 C-13.7366374 44.61740345 -16.68615029 52.93453704 -19.64379883 61.24926758 C-20.095885 62.52033825 -20.54795176 63.79141583 -21 65.0625 C-21.22609955 65.69819916 -21.4521991 66.33389832 -21.68515015 66.98886108 C-27.33362721 82.87840503 -32.87609639 98.80485899 -38.421875 114.73046875 C-43.69681595 129.87734614 -48.99268493 145.01590029 -54.375 160.125 C-58.16635139 170.78184261 -61.9013022 181.45641164 -65.58544922 192.15087891 C-68.73726676 201.28235206 -71.96692065 210.38535675 -75.20700073 219.48574829 C-77.94504626 227.17828464 -80.66428013 234.87652003 -83.32446289 242.59643555 C-88.4427743 257.44266755 -93.71620541 272.20537516 -99 287 C-195.03 287 -291.06 287 -390 287 C-386.79992104 283.79992104 -384.13452025 281.60253378 -380.4375 279.125 C-372.28383276 273.584325 -364.39000154 267.70018945 -356.47167969 261.83056641 C-352.48681583 258.87931105 -348.49308225 255.94012041 -344.5 253 C-342.91662164 251.83339445 -341.33328836 250.6667277 -339.75 249.5 C-336.58333333 247.16666667 -333.41666667 244.83333333 -330.25 242.5 C-329.46616943 241.92241943 -328.68233887 241.34483887 -327.87475586 240.74975586 C-326.29231815 239.58379194 -324.70979869 238.41793896 -323.12719727 237.25219727 C-319.15448113 234.32568557 -315.18323006 231.39722466 -311.21484375 228.46484375 C-302.76659743 222.22528928 -294.28993416 216.0293578 -285.76708984 209.89208984 C-277.93122514 204.24281917 -270.16007146 198.50687108 -262.39111328 192.76611328 C-258.43008838 189.84043897 -254.46484283 186.92049694 -250.5 184 C-248.91664621 182.8333611 -247.33331288 181.66669442 -245.75 180.5 C-229.91666667 168.83333333 -214.08333333 157.16666667 -198.25 145.5 C-197.46616943 144.92241943 -196.68233887 144.34483887 -195.87475586 143.74975586 C-194.29231815 142.58379194 -192.70979869 141.41793896 -191.12719727 140.25219727 C-187.15448113 137.32568557 -183.18323006 134.39722466 -179.21484375 131.46484375 C-170.76659743 125.22528928 -162.28993416 119.0293578 -153.76708984 112.89208984 C-145.93122514 107.24281917 -138.16007146 101.50687108 -130.39111328 95.76611328 C-126.43008838 92.84043897 -122.46484283 89.92049694 -118.5 87 C-116.91664621 85.8333611 -115.33331288 84.66669442 -113.75 83.5 C-104.25 76.5 -94.75 69.5 -85.25 62.5 C-84.46616943 61.92241943 -83.68233887 61.34483887 -82.87475586 60.74975586 C-81.29231815 59.58379194 -79.70979869 58.41793896 -78.12719727 57.25219727 C-74.15448113 54.32568557 -70.18323006 51.39722466 -66.21484375 48.46484375 C-58.44400126 42.72576518 -50.65511304 37.01570381 -42.8125 31.375 C-36.50768653 26.84015041 -30.27138762 22.22505733 -24.07348633 17.54541016 C-16.1404604 11.57153647 -8.06958722 5.78733664 0 0 Z " fill="#F79D37" transform="translate(390,625)"/>
<path d="M0 0 C36.64410452 -0.84920972 73.2864686 -1.49999351 109.93840742 -1.88941719 C114.27739508 -1.93568644 118.61636342 -1.98357702 122.95532227 -2.0324707 C123.8190334 -2.04217619 124.68274454 -2.05188167 125.57262874 -2.06188127 C139.51030268 -2.22235452 153.4422587 -2.5137449 167.37655383 -2.85465346 C181.70374331 -3.20221756 196.02796667 -3.40648485 210.35919768 -3.48127431 C218.39979006 -3.5272555 226.42842282 -3.6375001 234.46473503 -3.9120121 C284.73123482 -5.57998545 284.73123482 -5.57998545 296.10328293 3.6233387 C304.5128508 11.76867155 309.64360831 21.97473625 314.09324837 32.66162109 C316.54942496 38.49348432 320.01578597 43.3887702 323.765625 48.47265625 C324.86157864 50.07808773 325.95177942 51.68747979 327.03320312 53.30273438 C327.55664307 54.07705811 328.08008301 54.85138184 328.61938477 55.64916992 C339.62304016 71.9347117 350.50147308 88.2975059 361.29025269 104.72610474 C373.55041933 123.39043306 386.02204093 141.9084589 398.54055786 160.400177 C402.1197116 165.68971176 405.67465176 170.99435567 409.2097168 176.31347656 C411.0766467 179.11501708 412.95859813 181.90600589 414.84375 184.6953125 C415.44960938 185.59507812 416.05546875 186.49484375 416.6796875 187.421875 C417.92107917 189.26531499 419.16602402 191.106366 420.4140625 192.9453125 C421.00960938 193.8321875 421.60515625 194.7190625 422.21875 195.6328125 C422.75435547 196.42574707 423.28996094 197.21868164 423.84179688 198.03564453 C425 200 425 200 425 202 C412.35734938 202.39813324 399.71451073 202.78964077 387.07141685 203.17345428 C381.19611173 203.35200629 375.32088457 203.53255863 369.44580078 203.71826172 C341.27978135 204.60695848 313.18206664 205.16867072 285 205 C285 182.23 285 159.46 285 136 C273.87627971 130.73083245 273.87627971 130.73083245 262.75244141 125.46191406 C254.23796338 121.42909051 245.72390239 117.39539178 237.2109375 113.359375 C222.14993046 106.219704 207.08409648 99.09077692 192 92 C180.07432606 86.39394374 168.15817775 80.76812916 156.25 75.125 C155.4604895 74.75086975 154.670979 74.3767395 153.85754395 73.99127197 C147.43249432 70.94637139 141.00798528 67.90033087 134.58349609 64.85424805 C128.97258165 62.19396913 123.36145633 59.53413571 117.75 56.875 C116.96016724 56.50070862 116.17033447 56.12641724 115.35656738 55.74078369 C103.55459469 50.14883483 91.74274695 44.57820354 79.92297363 39.02398682 C71.72318784 35.17068953 63.52875394 31.30648654 55.34375 27.421875 C54.123675 26.84294495 54.123675 26.84294495 52.87895203 26.25231934 C49.6130772 24.70250443 46.34724464 23.15260348 43.08218384 21.60107422 C35.02824986 17.77456915 26.96907952 13.96424344 18.85546875 10.265625 C18.23427155 9.98193054 17.61307434 9.69823608 16.97305298 9.40594482 C14.11884134 8.10363093 11.26149637 6.80913317 8.3984375 5.52636719 C7.42519531 5.08454102 6.45195312 4.64271484 5.44921875 4.1875 C4.60705811 3.80980469 3.76489746 3.43210938 2.8972168 3.04296875 C1 2 1 2 0 0 Z " fill="#00A54D" transform="translate(10,0)"/>
<path d="M0 0 C4.00793707 1.2602472 7.70663087 2.7323944 11.45678711 4.62280273 C12.50325912 5.14772812 13.54973114 5.6726535 14.62791443 6.21348572 C15.7497261 6.78112137 16.87153778 7.34875702 18.02734375 7.93359375 C19.21899398 8.53256565 20.41085743 9.13111353 21.60292053 9.72926331 C24.7472716 11.30807765 27.88937626 12.89130663 31.03082275 14.47589111 C36.5895992 17.27939068 42.15133017 20.07700815 47.71484375 22.87109375 C48.32335552 23.17685711 48.93186729 23.48262047 49.55881882 23.79764938 C58.5734507 28.32407549 67.63899406 32.73160152 76.75193787 37.0565033 C87.83052986 42.32376655 98.77461116 47.85640519 109.72949219 53.375 C119.92011446 58.50492355 130.13311459 63.57069545 140.4375 68.46875 C153.00948067 74.44530564 165.44265187 80.68723893 177.875 86.94775391 C188.35070569 92.21941083 198.84495299 97.43528076 209.4375 102.46875 C222.39560297 108.62696358 235.20618186 115.06984324 248.02050781 121.52050781 C259.76801397 127.43036613 271.54841396 133.24784915 283.42602539 138.89196777 C294.99585459 144.40322149 306.42945857 150.1841618 317.875 155.94775391 C329.34301846 161.71876931 340.84804087 167.38894607 352.44311523 172.9005127 C361.768835 177.34357981 371.00345201 181.96076835 380.2298584 186.60577393 C395.37688427 194.22934754 410.55134786 201.76681985 425.89257812 208.99316406 C429.28599402 210.61439288 432.64245378 212.30589563 436 214 C436 214.33 436 214.66 436 215 C399.00568263 215.41228146 362.01171213 215.72931328 325.01556103 215.91917593 C320.64481037 215.94168781 316.27406423 215.96498569 311.90332031 215.98876953 C310.59815263 215.99585191 310.59815263 215.99585191 309.26661792 216.00307737 C295.18992542 216.08133651 281.11456027 216.2232186 267.03865442 216.38875033 C252.58808078 216.55726678 238.1382007 216.65709625 223.68668485 216.69359291 C214.77319718 216.71825593 205.86346098 216.79603649 196.95112887 216.9424964 C190.83381823 217.03788428 184.71843726 217.06635264 178.60043749 217.04302479 C175.0724181 217.0315242 171.55093214 217.04871394 168.024086 217.14569855 C147.4650988 217.6836298 147.4650988 217.6836298 141.71305513 213.22882009 C137.86758014 209.00310872 135.30112659 204.31627666 132.98619771 199.12349474 C131.6576516 196.26285062 129.93430442 193.75965325 128.10253906 191.19970703 C127.54866516 190.37890656 126.99479126 189.55810608 126.4241333 188.71243286 C125.87682556 187.90240814 125.32951782 187.09238342 124.765625 186.2578125 C124.15789246 185.35731171 123.55015991 184.45681091 122.92401123 183.52902222 C121.03315317 180.72735775 119.14164341 177.92613425 117.25 175.125 C103.25001697 154.3908931 103.25001697 154.3908931 99.015625 148.0234375 C92.89271632 138.81619121 86.68672119 129.66442038 80.5 120.5 C66.2705857 99.42189896 66.2705857 99.42189896 60.17773438 90.25976562 C54.64995314 81.98544555 49.06771161 73.74747845 43.5 65.5 C29.26738094 44.41715174 29.26738094 44.41715174 24.78125 37.66796875 C21.75732841 33.11990623 18.69696406 28.59769653 15.625 24.08203125 C15.1647644 23.40514252 14.70452881 22.72825378 14.23034668 22.03085327 C12.33244978 19.23996729 10.43425835 16.44929182 8.53271484 13.66088867 C7.12389095 11.59434636 5.71794686 9.52587119 4.3125 7.45703125 C3.87824707 6.82175003 3.44399414 6.18646881 2.99658203 5.53193665 C0 1.11365294 0 1.11365294 0 0 Z " fill="#0072CE" transform="translate(475,697)"/>
<path d="M0 0 C8.45859531 7.37217022 15.60782848 15.36707336 21.8671875 24.6640625 C22.5178418 25.62820068 22.5178418 25.62820068 23.18164062 26.61181641 C25.17129672 29.64819767 26.62154639 32.24340381 27.3671875 35.7890625 C15.6484375 43.11328125 15.6484375 43.11328125 13.51953125 44.43896484 C12.04752667 45.3623071 10.58161497 46.29541523 9.12109375 47.23681641 C8.05181641 47.92203369 8.05181641 47.92203369 6.9609375 48.62109375 C6.31833984 49.03721924 5.67574219 49.45334473 5.01367188 49.88208008 C3.3671875 50.7890625 3.3671875 50.7890625 1.3671875 50.7890625 C0.69236328 49.49935547 0.69236328 49.49935547 0.00390625 48.18359375 C-12.52708736 24.89467239 -31.6869144 10.18305555 -56.6328125 1.7890625 C-84.58175787 -6.20527271 -113.71111959 -1.60114014 -139.2578125 11.6015625 C-144.88552105 14.75955723 -149.72996796 18.61712778 -154.6328125 22.7890625 C-155.30957031 23.32015625 -155.98632812 23.85125 -156.68359375 24.3984375 C-175.00220267 39.2295357 -185.62386408 64.495713 -188.40576172 87.37890625 C-191.04732297 115.41922092 -184.98682678 144.44033134 -167.1328125 166.7890625 C-165.65518505 168.4755959 -164.15591059 170.1434775 -162.6328125 171.7890625 C-161.93671875 172.56507813 -161.240625 173.34109375 -160.5234375 174.140625 C-144.0900725 191.59357834 -118.79242345 202.86113885 -94.83251953 203.91186523 C-64.94862849 204.66387687 -37.61368864 200.653279 -14.6328125 179.7890625 C-1.22639706 166.55904726 5.3324136 151.94554504 9.3671875 133.7890625 C-24.6228125 133.4590625 -58.6128125 133.1290625 -93.6328125 132.7890625 C-93.6328125 123.5490625 -93.6328125 114.3090625 -93.6328125 104.7890625 C-49.4128125 104.7890625 -5.1928125 104.7890625 40.3671875 104.7890625 C40.3671875 137.62160905 36.63703433 165.2067725 15.3671875 190.7890625 C14.65820312 191.65015625 13.94921875 192.51125 13.21875 193.3984375 C-8.05826741 218.13201008 -38.33198988 230.026699 -70.1953125 233.4765625 C-107.14280654 236.14746568 -144.65193466 226.88058737 -173.2421875 202.5703125 C-175.74894197 200.35221461 -178.19776665 198.08542902 -180.6328125 195.7890625 C-181.30957031 195.17675781 -181.98632812 194.56445312 -182.68359375 193.93359375 C-196.22045621 181.21057071 -205.37419159 164.054851 -211.6328125 146.7890625 C-212.20515625 145.21705078 -212.20515625 145.21705078 -212.7890625 143.61328125 C-224.1976397 109.60362118 -220.53314191 71.1540459 -204.6953125 39.2265625 C-188.43652239 7.85533579 -161.98441882 -14.23832334 -128.39599609 -25.2121582 C-83.73792355 -39.14932947 -35.78898823 -30.05425421 0 0 Z " fill="#187460" transform="translate(2980.6328125,605.2109375)"/>
<path d="M0 0 C25 0 25 0 29.625 4.125 C30.42607897 5.72097994 31.22075593 7.32117615 31.95556641 8.94873047 C34.25993421 13.47451314 37.40757305 17.53354677 40.3125 21.6875 C41.62929403 23.61905745 42.94311979 25.55264194 44.25390625 27.48828125 C47.40438253 32.12752295 50.56986345 36.75605053 53.75 41.375 C54.18803955 42.01139404 54.6260791 42.64778809 55.07739258 43.3034668 C55.9479539 44.56795752 56.81863933 45.83236282 57.68945312 47.09667969 C59.96155061 50.39646956 62.23057913 53.69836901 64.5 57 C65.41665286 58.33334282 66.33331951 59.66667617 67.25 61 C138.75 165 138.75 165 140.12695312 167.00292969 C141.0369987 168.3265735 141.94715365 169.65014211 142.85742188 170.97363281 C145.2513272 174.4545841 147.64291226 177.93710087 150.03125 181.421875 C150.52818359 182.14632812 151.02511719 182.87078125 151.53710938 183.6171875 C152.4870321 185.00212157 153.4362897 186.38751218 154.38476562 187.7734375 C154.81466797 188.39992188 155.24457031 189.02640625 155.6875 189.671875 C156.06261719 190.2194043 156.43773437 190.76693359 156.82421875 191.33105469 C158.17590885 193.24969121 159.5918226 195.12243013 161 197 C161.495 99.485 161.495 99.485 162 0 C171.57 0 181.14 0 191 0 C191 84.81 191 169.62 191 257 C183.08 257 175.16 257 167 257 C160.30965567 250.30965567 160.30965567 250.30965567 158.63671875 246.890625 C156.06790488 241.98923364 153.05089356 237.47579178 149.94726562 232.8984375 C147.90198744 229.88197964 145.89600353 226.84250588 143.89453125 223.796875 C140.72796687 219.0251434 137.39649122 214.40065558 134.0065918 209.78613281 C129.81874885 203.97135441 125.93862685 197.94580408 122 191.9609375 C118.7612502 187.0648587 115.47567276 182.23153109 112 177.5 C107.08884278 170.81430355 102.55929242 163.88892481 98 156.9609375 C94.14113681 151.12742166 90.1581551 145.42356547 86.01806641 139.78662109 C82.46011821 134.873674 79.08218578 129.83897612 75.6875 124.8125 C74.18699581 122.59711519 72.68521077 120.38259936 71.18359375 118.16796875 C70.46413574 117.10626465 69.74467773 116.04456055 69.00341797 114.95068359 C66.43337158 111.16545563 63.84630216 107.39225055 61.25 103.625 C57.32220788 97.92423065 53.40735828 92.21479711 49.5 86.5 C47.33365728 83.33311162 45.16690153 80.16650605 43 77 C42.19272461 75.82002441 42.19272461 75.82002441 41.36914062 74.61621094 C39.83058454 72.36834489 38.29052643 70.12151602 36.75 67.875 C36.28400391 67.19373047 35.81800781 66.51246094 35.33789062 65.81054688 C33.343216 62.76571936 33.343216 62.76571936 31 60 C30.67 125.01 30.34 190.02 30 257 C20.1 257 10.2 257 0 257 C0 172.19 0 87.38 0 0 Z " fill="#187460" transform="translate(1803,578)"/>
<path d="M0 0 C1.55907937 1.39358377 3.10164283 2.80310625 4.63867188 4.22094727 C5.59644531 5.0962207 6.55421875 5.97149414 7.54101562 6.87329102 C31.22274669 29.49216739 45.58884908 62.53950725 46.63867188 95.22094727 C46.67863281 96.20579102 46.71859375 97.19063477 46.75976562 98.20532227 C47.22811223 120.35536181 42.39297121 141.38367112 32.63867188 161.22094727 C32.08179687 162.36305664 31.52492188 163.50516602 30.95117188 164.68188477 C19.58228937 186.84067891 1.33205214 205.16081463 -20.36132812 217.22094727 C-20.95751953 217.55723145 -21.55371094 217.89351562 -22.16796875 218.23999023 C-36.06200963 225.98355385 -51.5381642 231.2526377 -67.36132812 233.22094727 C-68.21082031 233.33051758 -69.0603125 233.44008789 -69.93554688 233.55297852 C-104.29951849 237.31545716 -140.10419678 228.28482065 -167.54882812 206.97094727 C-195.33491626 184.61409901 -213.50971052 153.59556046 -217.91992188 117.99829102 C-221.59649171 82.81037689 -212.80149212 46.92841663 -190.36132812 19.22094727 C-187.47741965 15.76427648 -184.4781059 12.46824338 -181.36132812 9.22094727 C-180.51957031 8.31602539 -179.6778125 7.41110352 -178.81054688 6.47875977 C-172.22518203 -0.40204113 -165.39454923 -5.68457918 -157.36132812 -10.77905273 C-156.38292969 -11.40682617 -155.40453125 -12.03459961 -154.39648438 -12.68139648 C-107.37323549 -41.52653036 -41.64339696 -36.2865418 0 0 Z M-158.90039062 26.67797852 C-179.19046356 47.64438722 -189.79658681 74.47017403 -189.6640625 103.61889648 C-188.96217917 132.53259045 -177.01054631 158.23172095 -156.57470703 178.4934082 C-135.41057441 198.61907119 -108.44122249 205.82331896 -79.82617188 205.50219727 C-53.32234756 204.72461697 -27.7402248 191.74485498 -9.54492188 172.74829102 C9.00543835 151.27765941 19.21651601 124.0228148 17.39257812 95.49829102 C14.96210028 66.05555383 2.33087632 39.54213321 -20.36132812 20.22094727 C-61.85493266 -12.09562996 -120.59523076 -9.33383036 -158.90039062 26.67797852 Z " fill="#187460" transform="translate(2249.361328125,604.779052734375)"/>
<path d="M0 0 C0.79277344 0.66773438 1.58554688 1.33546875 2.40234375 2.0234375 C3.54509766 2.96316406 3.54509766 2.96316406 4.7109375 3.921875 C28.9300846 24.48926162 44.70831705 57.48708805 47.40234375 89.0234375 C48.07708129 103.89768063 47.83698234 118.50021619 44.40234375 133.0234375 C44.1688623 134.04727539 44.1688623 134.04727539 43.93066406 135.09179688 C38.49548789 158.11264287 26.65249558 178.04104312 10.40234375 195.0234375 C9.66886719 195.83167969 8.93539062 196.63992188 8.1796875 197.47265625 C-13.23420638 220.24502754 -46.53542896 233.96658657 -77.59765625 235.0234375 C-78.6340625 235.06339844 -79.67046875 235.10335938 -80.73828125 235.14453125 C-113.77481116 235.78565112 -146.74739998 225.16837816 -171.59765625 203.0234375 C-172.43683594 202.31574219 -173.27601563 201.60804688 -174.140625 200.87890625 C-199.96673829 178.65643668 -214.70852346 145.44966712 -217.25805664 111.79516602 C-218.61617333 89.2783325 -214.81034612 67.57994551 -205.59765625 47.0234375 C-204.81068359 45.26386719 -204.81068359 45.26386719 -204.0078125 43.46875 C-189.37873489 12.55836954 -162.21871534 -10.85384823 -130.40136719 -22.80126953 C-86.17345369 -38.24545358 -36.1438669 -29.80584285 0 0 Z M-160.875 31.2578125 C-171.34109749 42.22054379 -179.02034657 55.60708478 -183.59765625 70.0234375 C-183.80648437 70.66877441 -184.0153125 71.31411133 -184.23046875 71.97900391 C-192.61182074 99.15872051 -188.08626636 128.47454994 -175.47265625 153.4609375 C-161.80675702 178.07745904 -139.37689619 195.04441401 -112.57421875 203.05078125 C-103.50499727 205.37811472 -94.77126959 206.38681707 -85.41015625 206.3359375 C-84.31517822 206.33029785 -83.2202002 206.3246582 -82.09204102 206.31884766 C-53.24973647 205.88972889 -28.98211035 193.91266594 -8.85375977 173.57592773 C10.06917955 153.92294148 18.8123271 127.24663216 18.70507812 100.32177734 C18.18884504 76.29303906 9.65927836 53.59035114 -5.59765625 35.0234375 C-6.29632812 34.15976562 -6.995 33.29609375 -7.71484375 32.40625 C-25.58621613 11.3926583 -51.46201385 0.50380089 -78.53515625 -1.8515625 C-110.77893219 -3.13107742 -138.02505943 8.83900288 -160.875 31.2578125 Z " fill="#187460" transform="translate(2691.59765625,603.9765625)"/>
<path d="M0 0 C0.33 0 0.66 0 1 0 C1 95.37 1 190.74 1 289 C-10.69969181 283.73513868 -22.27819404 278.50633714 -33.70703125 272.7265625 C-35.01318827 272.07032375 -36.31956571 271.41452354 -37.62614441 270.75912476 C-41.01035891 269.06049451 -44.39229745 267.35739029 -47.77349854 265.652771 C-53.81112748 262.60946768 -59.85203157 259.57268177 -65.89453125 256.5390625 C-66.54770891 256.21097658 -67.20088657 255.88289066 -67.8738575 255.54486275 C-77.14151302 250.89281885 -86.45558878 246.3495761 -95.82467651 241.90486145 C-106.10284317 237.02178972 -116.26964919 231.9202767 -126.4375 226.8125 C-128.35602328 225.85071891 -130.27464283 224.88912985 -132.19335938 223.92773438 C-136.79667666 221.62068347 -141.39871533 219.311102 -146 217 C-137.48766172 203.48666299 -128.50815073 190.2904154 -119.5625 177.0625 C-118.45812916 175.42882031 -117.35380064 173.79511202 -116.24951172 172.16137695 C-113.96322291 168.77901947 -111.67675519 165.39678306 -109.39013672 162.01464844 C-104.13379379 154.23980899 -98.87931858 146.4637076 -93.625 138.6875 C-93.11413849 137.93147491 -92.60327698 137.17544983 -92.07693481 136.39651489 C-83.88082083 124.26690871 -75.6894463 112.13410873 -67.5 100 C-58.79495613 87.10194256 -50.08726734 74.20567943 -41.375 61.3125 C-40.86989899 60.56499481 -40.36479797 59.81748962 -39.84439087 59.04733276 C-34.49107528 51.12498283 -29.13723662 43.2029865 -23.78308105 35.28120422 C-21.47395874 31.86465181 -19.16497813 28.44800363 -16.85601807 25.03134155 C-15.22690991 22.62081331 -13.59758919 20.21042884 -11.96826172 17.80004883 C-10.9723195 16.32634223 -9.97638794 14.85262842 -8.98046875 13.37890625 C-8.53371292 12.71812073 -8.08695709 12.05733521 -7.62666321 11.37652588 C-7.20612167 10.75413025 -6.78558014 10.13173462 -6.35229492 9.49047852 C-5.95634125 8.90573761 -5.56038757 8.3209967 -5.1524353 7.71853638 C-4.37210825 6.55489584 -3.60087145 5.38511666 -2.83804321 4.20993042 C-1.91534628 2.79117992 -0.96094789 1.39312661 0 0 Z " fill="#0081D7" transform="translate(621,480)"/>
<path d="M0 0 C3.48121634 1.16040545 3.84590552 1.85167449 5.78051758 4.83520508 C6.58329887 6.05963066 6.58329887 6.05963066 7.40229797 7.30879211 C7.97723495 8.20333603 8.55217194 9.09787994 9.14453125 10.01953125 C9.75076828 10.94730881 10.35700531 11.87508636 10.98161316 12.83097839 C12.93299955 15.81984826 14.87333188 18.81569142 16.8125 21.8125 C19.33527532 25.6969988 21.86301743 29.57822201 24.39453125 33.45703125 C25.0278688 34.42817871 25.66120636 35.39932617 26.31373596 36.39990234 C30.99609969 43.54754096 35.84893599 50.55794524 40.7807312 57.53489685 C46.91675692 66.24254634 52.75777044 75.13779404 58.58935547 84.05105591 C61.76940422 88.91013469 64.96074225 93.76178567 68.15234375 98.61328125 C68.76657196 99.54714157 69.38080017 100.48100189 70.01364136 101.44316101 C74.6488069 108.48326946 79.34638605 115.47456163 84.12109375 122.42089844 C90.78363813 132.11701081 97.35937521 141.87148669 103.9375 151.625 C104.5658374 152.55647858 105.1941748 153.48795715 105.84155273 154.44766235 C114.92578616 167.91798447 123.96300412 181.41876841 132.96115112 194.94671631 C143.21508916 210.36056263 153.58876463 225.69206617 164 241 C163.67 241.66 163.34 242.32 163 243 C162.27224365 242.63350342 161.5444873 242.26700684 160.79467773 241.8894043 C142.72199191 232.79238702 142.72199191 232.79238702 124.5 224 C111.05180298 217.64246751 97.78369246 210.91909591 84.49804688 204.23046875 C75.22896687 199.57074216 65.93243273 194.98512471 56.5625 190.53125 C43.99051933 184.55469436 31.55734813 178.31276107 19.125 172.05224609 C7.66876747 166.28716169 -3.82398559 160.621502 -15.40699768 155.11528015 C-25.82071702 150.15431544 -36.13033178 144.99026221 -46.4375 139.8125 C-48.35602328 138.85071891 -50.27464283 137.88912985 -52.19335938 136.92773438 C-56.79667666 134.62068347 -61.39871533 132.311102 -66 130 C-65.42846709 126.62674138 -64.61148979 123.85360494 -63.06640625 120.8046875 C-62.67042236 120.01715088 -62.27443848 119.22961426 -61.86645508 118.41821289 C-61.22099731 117.15932251 -61.22099731 117.15932251 -60.5625 115.875 C-60.11221436 114.98611084 -59.66192871 114.09722168 -59.19799805 113.18139648 C-55.89070855 106.67688759 -52.5096501 100.21184022 -49.0949707 93.76318359 C-45.26762128 86.53236535 -41.50442593 79.26885541 -37.75 72 C-37.10400801 70.74959098 -36.4580119 69.49918409 -35.81201172 68.2487793 C-34.83651081 66.36050835 -33.86103942 64.4722222 -32.88568115 62.58387756 C-29.0079763 55.07746743 -25.1182983 47.57726887 -21.2265625 40.078125 C-18.50393049 34.83132164 -15.78351327 29.58341352 -13.0717926 24.33096313 C-11.77742915 21.82413044 -10.48179117 19.31795751 -9.18606567 16.81182861 C-8.26985979 15.03844018 -7.35549043 13.2641033 -6.44116211 11.48974609 C-5.88823486 10.42062988 -5.33530762 9.35151367 -4.765625 8.25 C-4.27868164 7.30640625 -3.79173828 6.3628125 -3.29003906 5.390625 C-2 3 -2 3 0 0 Z " fill="#00ACF6" transform="translate(748,669)"/>
<path d="M0 0 C9.57 0 19.14 0 29 0 C29 36.63 29 73.26 29 111 C72.89 111 116.78 111 162 111 C162 74.37 162 37.74 162 0 C171.57 0 181.14 0 191 0 C191 84.81 191 169.62 191 257 C181.43 257 171.86 257 162 257 C162 218.06 162 179.12 162 139 C118.11 139 74.22 139 29 139 C29 177.94 29 216.88 29 257 C19.43 257 9.86 257 0 257 C0 172.19 0 87.38 0 0 Z " fill="#187460" transform="translate(1562,578)"/>
<path d="M0 0 C8.70340615 7.51062007 15.62944212 16.13353358 22 25.6875 C22.39936768 26.27515137 22.79873535 26.86280273 23.21020508 27.46826172 C25.84018867 31.56830829 25.84018867 31.56830829 25.72363281 34.17480469 C24.39643501 37.10658891 22.54567127 37.87578378 19.75390625 39.421875 C18.72845703 39.99550781 17.70300781 40.56914063 16.64648438 41.16015625 C15.56689453 41.74667969 14.48730469 42.33320312 13.375 42.9375 C12.29927734 43.53949219 11.22355469 44.14148438 10.11523438 44.76171875 C2.12173151 49.1875 2.12173151 49.1875 -0.1875 49.1875 C-0.62578125 48.32769531 -1.0640625 47.46789062 -1.515625 46.58203125 C-13.07795946 24.72267441 -32.28851489 9.52935447 -55.79052734 2.06518555 C-82.55993499 -6.08489219 -111.77436458 -3.8279654 -136.69873047 9.10620117 C-159.987043 21.70282061 -177.27684895 41.87095992 -185.1875 67.1875 C-193.7066783 96.72333042 -190.50876784 126.27830672 -176.5 153.625 C-163.61942064 176.56438232 -142.88070125 192.10237884 -117.8125 199.5625 C-89.78321241 207.15524373 -60.3891046 204.3775184 -35.015625 189.984375 C-19.0419589 179.83536063 -8.64760797 167.47413276 0.8125 151.1875 C6.90132416 152.78556348 11.8789755 156.0486283 17.1875 159.3125 C18.11433594 159.87582031 19.04117187 160.43914062 19.99609375 161.01953125 C22.27153155 162.40356043 24.5434763 163.79298922 26.8125 165.1875 C15.29228189 191.17823598 -8.22070177 212.73353449 -34.65576172 223.16113281 C-69.41604338 236.0449027 -108.35346594 237.59528036 -142.59326172 221.91088867 C-144.46741109 221.0210374 -146.32897992 220.10949432 -148.1875 219.1875 C-149.32832031 218.630625 -150.46914062 218.07375 -151.64453125 217.5 C-181.98448873 201.95212143 -203.67549648 174.17591862 -214.1887207 142.0144043 C-224.89470889 107.57430613 -221.5574019 69.05868553 -205.05566406 36.98779297 C-200.80973234 29.23143095 -195.9382005 21.91331928 -190.1875 15.1875 C-189.51203125 14.39085937 -188.8365625 13.59421875 -188.140625 12.7734375 C-140.07799575 -42.27702083 -55.27011067 -46.21955568 0 0 Z " fill="#187460" transform="translate(1503.1875,605.8125)"/>
<path d="M0 0 C49.83 0 99.66 0 151 0 C151 9.24 151 18.48 151 28 C111.07 28 71.14 28 30 28 C30 56.05 30 84.1 30 113 C66.96 113 103.92 113 142 113 C142 122.24 142 131.48 142 141 C105.04 141 68.08 141 30 141 C30 170.04 30 199.08 30 229 C70.59 229 111.18 229 153 229 C153 238.24 153 247.48 153 257 C102.51 257 52.02 257 0 257 C0 172.19 0 87.38 0 0 Z " fill="#187460" transform="translate(1111,578)"/>
<path d="M0 0 C8.81500123 7.52766194 15.24715287 15.98231304 21 26 C21.56074219 26.96808594 22.12148437 27.93617188 22.69921875 28.93359375 C26.05571511 35.12242128 26.05571511 35.12242128 25.8449707 38.44189453 C24.7104837 41.87649574 23.32324338 42.44530761 20.16015625 44.11328125 C19.17982422 44.63857422 18.19949219 45.16386719 17.18945312 45.70507812 C16.15755859 46.23552734 15.12566406 46.76597656 14.0625 47.3125 C13.03447266 47.86228516 12.00644531 48.41207031 10.94726562 48.97851562 C3.33891693 53 3.33891693 53 1 53 C0.5153125 51.97261719 0.030625 50.94523438 -0.46875 49.88671875 C-9.15426539 31.78861004 -18.6961623 19.39451684 -38 12 C-40.99569301 11.01788648 -43.8765697 10.41056738 -47 10 C-47.95003906 9.86722656 -48.90007813 9.73445312 -49.87890625 9.59765625 C-65.14488352 7.93057407 -81.27712713 10.07042781 -93.9375 19.3125 C-102.5931694 26.6682337 -107.61097911 35.66739894 -108.875 47 C-109.37007214 56.92683116 -107.36509535 65.1847922 -101 73 C-87.39890164 85.70508006 -67.8101024 90.64923733 -50.55908203 96.296875 C11.84799481 116.80593698 11.84799481 116.80593698 26.4609375 143.6875 C34.11588027 159.61686069 34.23602637 178.55985205 29.3203125 195.38671875 C25.47364127 205.91385156 19.95585021 214.15542042 12 222 C11.07960938 222.93585938 11.07960938 222.93585938 10.140625 223.890625 C-7.62080543 240.74121285 -33.57632173 245.38470011 -57.19921875 245.15234375 C-85.9452804 244.00013778 -112.48286107 234.41666052 -132.6875 213.3125 C-140.39402151 204.4203598 -150 189.99534809 -150 178 C-146.60723694 176.03631122 -143.21027282 174.08000556 -139.8125 172.125 C-138.85279297 171.56941406 -137.89308594 171.01382813 -136.90429688 170.44140625 C-135.97294922 169.90644531 -135.04160156 169.37148438 -134.08203125 168.8203125 C-133.22843018 168.32805176 -132.3748291 167.83579102 -131.49536133 167.32861328 C-129.04704623 166.02504898 -126.59312233 164.97876661 -124 164 C-123.70867188 164.95519531 -123.41734375 165.91039062 -123.1171875 166.89453125 C-117.64049855 184.38042745 -109.70642441 198.12471203 -93 207 C-73.50473021 216.72114676 -48.84882042 218.5898179 -28 212 C-26.64261719 211.58234375 -26.64261719 211.58234375 -25.2578125 211.15625 C-15.81036191 207.82523399 -8.08863722 201.65688892 -3 193 C2.19402499 182.11252453 3.98743195 170.98981102 0.0390625 159.34765625 C-5.7850458 146.18867471 -18.80979499 139.13456627 -31.56933594 133.95751953 C-41.12058772 130.30035511 -50.82499394 127.06316157 -60.51876831 123.80805969 C-120.21736962 103.75857766 -120.21736962 103.75857766 -133.4921875 79.27734375 C-141.32551804 62.2510113 -141.08253036 43.50537756 -135 26 C-128.18885219 8.54643375 -114.91857817 -4.85771959 -97.89526367 -12.62475586 C-65.82369897 -26.43306624 -27.21833604 -21.99461498 0 0 Z " fill="#187460" transform="translate(3459,594)"/>
<path d="M0 0 C49.5 0 99 0 150 0 C150 9.24 150 18.48 150 28 C110.07 28 70.14 28 29 28 C29 56.05 29 84.1 29 113 C66.29 113 103.58 113 142 113 C142 122.24 142 131.48 142 141 C104.71 141 67.42 141 29 141 C29 170.04 29 199.08 29 229 C69.59 229 110.18 229 152 229 C152 238.24 152 247.48 152 257 C101.84 257 51.68 257 0 257 C0 172.19 0 87.38 0 0 Z " fill="#187460" transform="translate(3137,578)"/>
<path d="M0 0 C0.11088785 22.88674394 -0.11950608 45.73640062 -0.7747848 68.61360359 C-0.88726605 72.5773893 -0.99408985 76.54132862 -1.10169983 80.50524902 C-1.28257253 87.14031104 -1.46697974 93.77526627 -1.65405273 100.41015625 C-1.89149053 108.83170286 -2.12331846 117.25339384 -2.3532629 125.67514801 C-2.55468485 133.0521321 -2.75823822 140.42905718 -2.96234822 147.80596733 C-3.0052588 149.35764328 -3.04810721 150.90932095 -3.09088969 152.46100044 C-3.63828648 172.31100316 -4.25473694 192.15627634 -5 212 C-8.01889348 209.08432353 -10.68772041 206.27806118 -12.97583008 202.75830078 C-13.50505569 201.95107574 -14.03428131 201.14385071 -14.57954407 200.31216431 C-15.13723984 199.44860321 -15.69493561 198.58504211 -16.26953125 197.6953125 C-16.86239426 196.78864838 -17.45525726 195.88198425 -18.06608582 194.94784546 C-19.33094927 193.01282128 -20.59327508 191.07613634 -21.85327148 189.13793945 C-25.14530918 184.07538031 -28.45706832 179.0257726 -31.76953125 173.9765625 C-32.41383087 172.9938739 -33.05813049 172.0111853 -33.72195435 170.99871826 C-38.04316625 164.42080106 -42.4437447 157.91788853 -47 151.5 C-54.70692128 140.61590903 -61.99225627 129.45852964 -69.3125 118.3125 C-79.11991152 103.38207982 -89.00501064 88.51914604 -99.07553101 73.76501465 C-104.71462667 65.49609733 -110.30538915 57.19439578 -115.90136719 48.89627075 C-117.74223532 46.16668637 -119.58397553 43.43769203 -121.42578125 40.70874023 C-124.95592752 35.4761222 -128.47964032 30.2392063 -132 25 C-132.65369568 24.02778503 -133.30739136 23.05557007 -133.980896 22.05389404 C-135.95217977 19.11974489 -137.91997358 16.18328653 -139.88671875 13.24609375 C-140.49965286 12.3342482 -141.11258698 11.42240265 -141.74409485 10.48292542 C-142.30251572 9.64736618 -142.86093658 8.81180695 -143.4362793 7.95092773 C-143.9325029 7.21043686 -144.4287265 6.46994598 -144.93998718 5.70701599 C-146 4 -146 4 -146 3 C-141.80469088 2.8657797 -137.60937728 2.73169968 -133.4140625 2.59765625 C-132.10804077 2.55590775 -130.80201904 2.51415924 -129.4564209 2.47114563 C-122.2429787 2.24075457 -115.02949033 2.01192513 -107.81591797 1.78564453 C-105.6312746 1.71705667 -103.44663181 1.64845081 -101.26198959 1.57982635 C-99.81443227 1.53435644 -98.36687418 1.48891075 -96.91931534 1.44348907 C-88.93520835 1.19266818 -80.95157305 0.93358901 -72.96875 0.64453125 C-48.64934515 -0.21596102 -24.33108251 -0.09286398 0 0 Z " fill="#D8E037" transform="translate(294,206)"/>
<path d="M0 0 C1.81770705 0.00504196 3.63541551 0.00959995 5.453125 0.01367188 C9.80211978 0.02442544 14.151043 0.04152951 18.5 0.0625 C14.91813046 6.89352551 10.77545383 13.15508087 6.3125 19.4375 C0.44827802 27.78105327 -5.30088506 36.18856147 -10.9375 44.6875 C-18.05278818 55.41005648 -25.22728609 66.09103463 -32.4375 76.75 C-33.22349075 77.91212006 -33.22349075 77.91212006 -34.02536011 79.09771729 C-36.18798555 82.29518659 -38.35073096 85.49257465 -40.51377869 88.6897583 C-46.11590729 96.97088263 -51.70910634 105.25802495 -57.30160522 113.5456543 C-66.57189093 127.28326059 -75.84607357 141.01822859 -85.125 154.75 C-85.63010101 155.49750519 -86.13520203 156.24501038 -86.65560913 157.01516724 C-92.00892472 164.93751717 -97.36276338 172.8595135 -102.71691895 180.78129578 C-105.02604126 184.19784819 -107.33502187 187.61449637 -109.64398193 191.03115845 C-111.27309009 193.44168669 -112.90241081 195.85207116 -114.53173828 198.26245117 C-115.5276805 199.73615777 -116.52361206 201.20987158 -117.51953125 202.68359375 C-117.96628708 203.34437927 -118.41304291 204.00516479 -118.87333679 204.68597412 C-119.29387833 205.30836975 -119.71441986 205.93076538 -120.14770508 206.57202148 C-120.54365875 207.15676239 -120.93961243 207.7415033 -121.3475647 208.34396362 C-122.12789175 209.50760416 -122.89912855 210.67738334 -123.66195679 211.85256958 C-124.58465372 213.27132008 -125.53905211 214.66937339 -126.5 216.0625 C-126.83 216.0625 -127.16 216.0625 -127.5 216.0625 C-127.62463658 196.21193327 -127.30240903 176.39787138 -126.75814676 156.55643201 C-126.67227322 153.40964491 -126.58877554 150.26279626 -126.50520885 147.11594719 C-126.30717318 139.66061831 -126.10531606 132.20540003 -125.90087891 124.75024414 C-125.6933732 117.18086743 -125.49224028 109.61134086 -125.29433453 102.04170758 C-125.1213752 95.43499717 -124.94434209 88.82840369 -124.76430881 82.22188228 C-124.65811528 78.3238686 -124.553189 74.42583479 -124.4522438 70.52768135 C-123.86685352 48.01352893 -122.81850154 25.54550138 -121.5 3.0625 C-119.96629761 3.02345425 -119.96629761 3.02345425 -118.40161133 2.98361969 C-110.81979017 2.79051489 -103.23798631 2.59680319 -95.65625 2.40039062 C-90.36461055 2.26331584 -85.07296399 2.12660213 -79.78125 1.99243164 C-74.67702884 1.8629048 -69.57286636 1.73124876 -64.46875 1.59765625 C-63.21562263 1.56494472 -63.21562263 1.56494472 -61.93717957 1.53157234 C-52.07838912 1.27176226 -42.22713201 0.95360875 -32.375 0.5 C-21.57907911 0.00676701 -10.80542858 -0.05378359 0 0 Z " fill="#8EC852" transform="translate(416.5,201.9375)"/>
<path d="M0 0 C4.00793707 1.2602472 7.70663087 2.7323944 11.45678711 4.62280273 C12.50325912 5.14772812 13.54973114 5.6726535 14.62791443 6.21348572 C15.7497261 6.78112137 16.87153778 7.34875702 18.02734375 7.93359375 C19.21899398 8.53256565 20.41085743 9.13111353 21.60292053 9.72926331 C24.7472716 11.30807765 27.88937626 12.89130663 31.03082275 14.47589111 C36.5895992 17.27939068 42.15133017 20.07700815 47.71484375 22.87109375 C48.32335552 23.17685711 48.93186729 23.48262047 49.55881882 23.79764938 C58.5734507 28.32407549 67.63899406 32.73160152 76.75193787 37.0565033 C87.83052986 42.32376655 98.77461116 47.85640519 109.72949219 53.375 C119.90082488 58.49521324 130.09416214 63.55233941 140.37890625 68.44140625 C152.31215795 74.11465788 164.12988515 80.00813079 175.9375 85.9375 C177.98102321 86.96178126 180.02464278 87.98587029 182.06835938 89.00976562 C185.7908749 90.875044 189.51284919 92.74139219 193.23413086 94.60913086 C197.48732373 96.74362848 201.74308769 98.87293046 206 101 C204.66422903 104.4481709 203.18301065 107.76244445 201.53125 111.0703125 C201.04825439 112.03831787 200.56525879 113.00632324 200.06762695 114.00366211 C199.55031006 115.03370361 199.03299316 116.06374512 198.5 117.125 C197.95883545 118.20467041 197.4176709 119.28434082 196.86010742 120.39672852 C193.36204646 127.35222911 189.79330416 134.26476663 186.14257812 141.14111328 C182.24317463 148.49902527 178.43375064 155.90223238 174.62677002 163.30822754 C155.79086752 199.94748104 155.79086752 199.94748104 147 215 C146.01 215 145.02 215 144 215 C142.10311984 212.49514544 140.41158088 210.01520245 138.734375 207.3671875 C137.65389424 205.70351707 136.57247289 204.04045722 135.49023438 202.37792969 C134.92103271 201.49745972 134.35183105 200.61698975 133.76538086 199.70983887 C130.82015399 195.18895024 127.79059362 190.72556478 124.765625 186.2578125 C123.51934024 184.41158726 122.27324795 182.56523208 121.02734375 180.71875 C119.76827301 178.85413706 118.50915818 176.9895539 117.25 175.125 C103.25001697 154.3908931 103.25001697 154.3908931 99.015625 148.0234375 C92.89271632 138.81619121 86.68672119 129.66442038 80.5 120.5 C66.2705857 99.42189896 66.2705857 99.42189896 60.17773438 90.25976562 C54.64995314 81.98544555 49.06771161 73.74747845 43.5 65.5 C29.26738094 44.41715174 29.26738094 44.41715174 24.78125 37.66796875 C21.75732841 33.11990623 18.69696406 28.59769653 15.625 24.08203125 C15.1647644 23.40514252 14.70452881 22.72825378 14.23034668 22.03085327 C12.33244978 19.23996729 10.43425835 16.44929182 8.53271484 13.66088867 C7.12389095 11.59434636 5.71794686 9.52587119 4.3125 7.45703125 C3.87824707 6.82175003 3.44399414 6.18646881 2.99658203 5.53193665 C0 1.11365294 0 1.11365294 0 0 Z " fill="#193687" transform="translate(475,697)"/>
<path d="M0 0 C3.23462095 3.1496636 5.69577887 6.318495 8.18359375 10.09765625 C8.78815903 11.01076569 8.78815903 11.01076569 9.40493774 11.94232178 C10.2861083 13.27401172 11.16521567 14.60706862 12.04251099 15.9413147 C14.49502122 19.67054024 16.9632709 23.38933845 19.4296875 27.109375 C19.95714066 27.90571854 20.48459381 28.70206207 21.0280304 29.52253723 C26.71075296 38.09247135 32.47702563 46.60542862 38.24099731 55.12081909 C49.37759185 71.57764846 60.3823337 88.11529134 71.28942871 104.7250061 C83.54989994 123.38967943 96.02178561 141.90808175 108.54055786 160.400177 C112.1197116 165.68971176 115.67465176 170.99435567 119.2097168 176.31347656 C121.0766467 179.11501708 122.95859813 181.90600589 124.84375 184.6953125 C125.44960938 185.59507812 126.05546875 186.49484375 126.6796875 187.421875 C127.92107917 189.26531499 129.16602402 191.106366 130.4140625 192.9453125 C131.30738281 194.275625 131.30738281 194.275625 132.21875 195.6328125 C132.75435547 196.42574707 133.28996094 197.21868164 133.84179688 198.03564453 C135 200 135 200 135 202 C122.35734938 202.39813324 109.71451073 202.78964077 97.07141685 203.17345428 C91.19611173 203.35200629 85.32088457 203.53255863 79.44580078 203.71826172 C51.28556373 204.60677603 23.17393168 205.18902567 -5 205 C-5.11236642 183.18351477 -4.87132698 161.40553849 -4.2252152 139.59882975 C-4.11280154 135.76983131 -4.00593221 131.94067703 -3.89830017 128.11154175 C-3.71734685 121.69991849 -3.53295042 115.28840267 -3.34594727 108.87695312 C-3.08512979 99.93443577 -2.83109045 90.99173488 -2.57819569 82.04899049 C-2.39922137 75.72963646 -2.2185734 69.41033009 -2.03765178 63.09103155 C-1.99475677 61.59242815 -1.95190863 60.0938234 -1.90911031 58.59521723 C-1.35099781 39.06040611 -0.72764286 19.52931971 0 0 Z " fill="#00B959" transform="translate(300,0)"/>
<path d="M0 0 C60.72 0 121.44 0 184 0 C184 9.24 184 18.48 184 28 C158.59 28 133.18 28 107 28 C107 103.57 107 179.14 107 257 C97.1 257 87.2 257 77 257 C77 181.43 77 105.86 77 28 C51.59 28 26.18 28 0 28 C0 18.76 0 9.52 0 0 Z " fill="#187460" transform="translate(899,578)"/>
<path d="M0 0 C9.9 0 19.8 0 30 0 C30 75.57 30 151.14 30 229 C68.28 229 106.56 229 146 229 C146 238.24 146 247.48 146 257 C97.82 257 49.64 257 0 257 C0 172.19 0 87.38 0 0 Z " fill="#187560" transform="translate(2332,578)"/>
<path d="M0 0 C9.57 0 19.14 0 29 0 C29 84.81 29 169.62 29 257 C19.43 257 9.86 257 0 257 C0 172.19 0 87.38 0 0 Z " fill="#187460" transform="translate(3057,578)"/>
<path d="M0 0 C11.55456467 5.06729268 23.00949165 10.30852551 34.39221191 15.75054932 C37.85727461 17.40709768 41.32489806 19.05825551 44.7923584 20.70977783 C46.58096865 21.56170422 48.36946163 22.41387686 50.15783691 23.26629639 C58.84555156 27.40638898 67.54603883 31.51919655 76.25 35.625 C76.9748056 35.96694397 77.69961121 36.30888794 78.44638062 36.66119385 C82.83842285 38.73324087 82.83842285 38.73324087 87.23057556 40.80505371 C92.80011083 43.43251076 98.36712993 46.06526199 103.93359375 48.69921875 C106.39176654 49.86187742 108.84998658 51.02443614 111.30822754 52.18695068 C112.87163001 52.92654088 114.43486754 53.66647984 115.9979248 54.40679932 C123.62936764 58.0211141 131.26044781 61.62100359 139 65 C139 65.33 139 65.66 139 66 C126.35734938 66.39813324 113.71451073 66.78964077 101.07141685 67.17345428 C95.19611173 67.35200629 89.32088457 67.53255863 83.44580078 67.71826172 C55.28868482 68.60667756 27.17213976 69.25389397 -1 69 C-1.10695615 45.97597115 -0.79014834 23.0109689 0 0 Z " fill="#3CC050" transform="translate(296,136)"/>
<path d="M0 0 C11.96105821 5.66576442 23.86935032 11.36560594 35.6875 17.3125 C37.07477182 18.00865881 38.46214165 18.70462235 39.84960938 19.40039062 C42.44893563 20.70418743 45.04775671 22.00898004 47.64599609 23.31494141 C51.42811879 25.21508778 55.21326632 27.10906367 59 29 C57.66422903 32.4481709 56.18301065 35.76244445 54.53125 39.0703125 C54.04825439 40.03831787 53.56525879 41.00632324 53.06762695 42.00366211 C52.29165161 43.54872437 52.29165161 43.54872437 51.5 45.125 C50.95883545 46.20467041 50.4176709 47.28434082 49.86010742 48.39672852 C46.36204646 55.35222911 42.79330416 62.26476663 39.14257812 69.14111328 C34.85852694 77.22482959 30.6824413 85.36342773 26.5 93.5 C18.14584376 109.74534059 9.70727897 125.94054838 1 142 C0.67 142 0.34 142 0 142 C0 95.14 0 48.28 0 0 Z " fill="#164AA7" transform="translate(622,769)"/>
</svg>
